# xmcd
#
# Track frame offsets:
#	150
#	13635
#	26270
#	38580
#	52810
#	65270
#	78315
#	93447
#	107477
#	119347
#	132290
#	146200
#	157220
#	168545
#	181195
#	194500
#
# Disc length: 2764 seconds
#
# Revision: 2
# Processed by: cddbd v1.5.2PL0 Copyright (c) Steve Scherf et al.
# Submitted via: EasyCDDAExtractor 12.0.1.1
#
DISCID=cf0aca10
DTITLE=Various Artist - Choo Choo Ch´ Boogie - With Special Guests
DYEAR=1994
DGENRE=Country
TTITLE0=The Jordanaires and The United - Choo Choo Ch´Boogie
TTITLE1=The United - Swamp Thing
TTITLE2=The Jordanaires and The United - A Little Bit Of Soap
TTITLE3=Charlie McCoy - Rock My World
TTITLE4=The United - Scotland
TTITLE5=Charlie McCoy - Honky Tonk Attitude
TTITLE6=Charlie McCoy - No One Will Ever Know
TTITLE7=The United - Barefootin´
TTITLE8=Charlie McCoy - Chattanooga Choo Choo
TTITLE9=Charlie McCoy - Love Bug
TTITLE10=Charlie McCoy - My Special Angel
TTITLE11=The Tomboola Band - Sugarfoot Rag
TTITLE12=The Tomboola Band - The Way You Do The Things You Do
TTITLE13=Charlie McCoy - I.C.3
TTITLE14=The Jordanaires and The United - Under The Boardwalk
TTITLE15=Charlie McCoy - Den Toppede Høne
EXTD=with The Jordanaires and The Tomboola Band
EXTT0=
EXTT1=
EXTT2=
EXTT3=
EXTT4=
EXTT5=
EXTT6=
EXTT7=
EXTT8=
EXTT9=
EXTT10=
EXTT11=
EXTT12=
EXTT13=
EXTT14=
EXTT15=
PLAYORDER=
